<?xml version="1.0" encoding="UTF-8"?>
<svg version="1.1" xmlns="http://www.w3.org/2000/svg" width="400" height="400">
<path d="M0 0 C2.26802605 -0.0162814 4.53602033 -0.03765941 6.80395508 -0.0637207 C12.93688391 -0.11822731 19.06737891 -0.09730488 25.2003479 -0.05917168 C31.63297852 -0.02868508 38.06540763 -0.05699523 44.49804688 -0.07580566 C55.98945171 -0.09900212 67.47961736 -0.06182693 78.97082806 -0.00069362 C89.36911852 0.0529147 99.76580103 0.04360007 110.1640625 -0.01171875 C122.26792292 -0.07608213 134.37052281 -0.09976649 146.47458649 -0.06437159 C152.87138951 -0.04571009 159.26708736 -0.04303624 165.66381836 -0.08280945 C171.67977526 -0.11760561 177.69271137 -0.09320522 183.70834351 -0.02407837 C185.90924067 -0.00827886 188.11039433 -0.01265411 190.31118774 -0.03923035 C209.71564707 -0.25186153 209.71564707 -0.25186153 216.83850098 6.2454834 C224.32917443 14.45729503 223.20964525 25.61543454 223.08398438 36.02148438 C223.10026578 38.28951042 223.12164378 40.5575047 223.14770508 42.82543945 C223.20221169 48.95836828 223.18128926 55.08886328 223.14315605 61.22183228 C223.11266945 67.6544629 223.14097961 74.086892 223.15979004 80.51953125 C223.1829865 92.01093608 223.14581131 103.50110174 223.08467799 114.99231243 C223.03106967 125.39060289 223.04038431 135.78728541 223.09570312 146.18554688 C223.1600665 158.28940729 223.18375087 170.39200719 223.14835596 182.49607086 C223.12969446 188.89287388 223.12702061 195.28857173 223.16679382 201.68530273 C223.20158998 207.70125964 223.17718959 213.71419575 223.10806274 219.72982788 C223.09226324 221.93072505 223.09663849 224.1318787 223.12321472 226.33267212 C223.3358459 245.73713145 223.3358459 245.73713145 216.83850098 252.85998535 C208.62668934 260.3506588 197.46854984 259.23112962 187.0625 259.10546875 C184.79447395 259.12175015 182.52647967 259.14312816 180.25854492 259.16918945 C174.12561609 259.22369606 167.99512109 259.20277363 161.8621521 259.16464043 C155.42952148 259.13415383 148.99709237 259.16246398 142.56445312 259.18127441 C131.07304829 259.20447087 119.58288264 259.16729568 108.09167194 259.10616237 C97.69338148 259.05255405 87.29669897 259.06186868 76.8984375 259.1171875 C64.79457708 259.18155088 52.69197719 259.20523524 40.58791351 259.16984034 C34.19111049 259.15117884 27.79541264 259.14850499 21.39868164 259.1882782 C15.38272474 259.22307436 9.36978863 259.19867397 3.35415649 259.12954712 C1.15325933 259.11374761 -1.04789433 259.11812286 -3.24868774 259.1446991 C-22.65314707 259.35733028 -22.65314707 259.35733028 -29.77600098 252.85998535 C-37.26667443 244.64817372 -36.14714525 233.49003421 -36.02148438 223.08398438 C-36.03776578 220.81595833 -36.05914378 218.54796405 -36.08520508 216.2800293 C-36.13971169 210.14710047 -36.11878926 204.01660547 -36.08065605 197.88363647 C-36.05016945 191.45100585 -36.07847961 185.01857675 -36.09729004 178.5859375 C-36.1204865 167.09453267 -36.08331131 155.60436701 -36.02217799 144.11315632 C-35.96856967 133.71486586 -35.97788431 123.31818334 -36.03320312 112.91992188 C-36.0975665 100.81606146 -36.12125087 88.71346156 -36.08585596 76.60939789 C-36.06719446 70.21259487 -36.06452061 63.81689702 -36.10429382 57.42016602 C-36.13908998 51.40420911 -36.11468959 45.391273 -36.04556274 39.37564087 C-36.02976324 37.1747437 -36.03413849 34.97359005 -36.06071472 32.77279663 C-36.2733459 13.3683373 -36.2733459 13.3683373 -29.77600098 6.2454834 C-21.56418934 -1.24519005 -10.40604984 -0.12566087 0 0 Z " fill="#E4AD31" transform="translate(106.46875,24.447265625)"/>
<path d="M0 0 C2.26802605 -0.0162814 4.53602033 -0.03765941 6.80395508 -0.0637207 C12.93688391 -0.11822731 19.06737891 -0.09730488 25.2003479 -0.05917168 C31.63297852 -0.02868508 38.06540763 -0.05699523 44.49804688 -0.07580566 C55.98945171 -0.09900212 67.47961736 -0.06182693 78.97082806 -0.00069362 C89.36911852 0.0529147 99.76580103 0.04360007 110.1640625 -0.01171875 C122.26792292 -0.07608213 134.37052281 -0.09976649 146.47458649 -0.06437159 C152.87138951 -0.04571009 159.26708736 -0.04303624 165.66381836 -0.08280945 C171.67977526 -0.11760561 177.69271137 -0.09320522 183.70834351 -0.02407837 C185.90924067 -0.00827886 188.11039433 -0.01265411 190.31118774 -0.03923035 C209.71564707 -0.25186153 209.71564707 -0.25186153 216.83850098 6.2454834 C224.32917443 14.45729503 223.20964525 25.61543454 223.08398438 36.02148438 C223.10026578 38.28951042 223.12164378 40.5575047 223.14770508 42.82543945 C223.20221169 48.95836828 223.18128926 55.08886328 223.14315605 61.22183228 C223.11266945 67.6544629 223.14097961 74.086892 223.15979004 80.51953125 C223.1829865 92.01093608 223.14581131 103.50110174 223.08467799 114.99231243 C223.03106967 125.39060289 223.04038431 135.78728541 223.09570312 146.18554688 C223.1600665 158.28940729 223.18375087 170.39200719 223.14835596 182.49607086 C223.12969446 188.89287388 223.12702061 195.28857173 223.16679382 201.68530273 C223.20158998 207.70125964 223.17718959 213.71419575 223.10806274 219.72982788 C223.09226324 221.93072505 223.09663849 224.1318787 223.12321472 226.33267212 C223.3358459 245.73713145 223.3358459 245.73713145 216.83850098 252.85998535 C208.62668934 260.3506588 197.46854984 259.23112962 187.0625 259.10546875 C184.79447395 259.12175015 182.52647967 259.14312816 180.25854492 259.16918945 C174.12561609 259.22369606 167.99512109 259.20277363 161.8621521 259.16464043 C155.42952148 259.13415383 148.99709237 259.16246398 142.56445312 259.18127441 C131.07304829 259.20447087 119.58288264 259.16729568 108.09167194 259.10616237 C97.69338148 259.05255405 87.29669897 259.06186868 76.8984375 259.1171875 C64.79457708 259.18155088 52.69197719 259.20523524 40.58791351 259.16984034 C34.19111049 259.15117884 27.79541264 259.14850499 21.39868164 259.1882782 C15.38272474 259.22307436 9.36978863 259.19867397 3.35415649 259.12954712 C1.15325933 259.11374761 -1.04789433 259.11812286 -3.24868774 259.1446991 C-22.65314707 259.35733028 -22.65314707 259.35733028 -29.77600098 252.85998535 C-37.26667443 244.64817372 -36.14714525 233.49003421 -36.02148438 223.08398438 C-36.03776578 220.81595833 -36.05914378 218.54796405 -36.08520508 216.2800293 C-36.13971169 210.14710047 -36.11878926 204.01660547 -36.08065605 197.88363647 C-36.05016945 191.45100585 -36.07847961 185.01857675 -36.09729004 178.5859375 C-36.1204865 167.09453267 -36.08331131 155.60436701 -36.02217799 144.11315632 C-35.96856967 133.71486586 -35.97788431 123.31818334 -36.03320312 112.91992188 C-36.0975665 100.81606146 -36.12125087 88.71346156 -36.08585596 76.60939789 C-36.06719446 70.21259487 -36.06452061 63.81689702 -36.10429382 57.42016602 C-36.13908998 51.40420911 -36.11468959 45.391273 -36.04556274 39.37564087 C-36.02976324 37.1747437 -36.03413849 34.97359005 -36.06071472 32.77279663 C-36.2733459 13.3683373 -36.2733459 13.3683373 -29.77600098 6.2454834 C-21.56418934 -1.24519005 -10.40604984 -0.12566087 0 0 Z M-16.17933851 19.84312195 C-18.42937361 22.82641162 -17.88248103 26.49351301 -17.85643005 30.08677673 C-17.86181559 30.96856505 -17.86720113 31.85035338 -17.87274987 32.75886256 C-17.88710291 35.72536836 -17.87990766 38.69143255 -17.87280273 41.65795898 C-17.87850246 43.77996685 -17.88546517 45.90197164 -17.89360046 48.02397156 C-17.91159093 53.79664962 -17.91035242 59.56917617 -17.90465808 65.34187388 C-17.9015747 70.15573942 -17.90764918 74.96957549 -17.91369683 79.78343683 C-17.92775981 91.13714347 -17.92616604 102.49077489 -17.91479492 113.84448242 C-17.90331173 125.5694082 -17.91738885 137.29410531 -17.9441914 149.01900095 C-17.96632108 159.07510809 -17.97299195 169.13114331 -17.96711498 179.18727309 C-17.96373769 185.19796793 -17.96621167 191.20851616 -17.98336601 197.2191906 C-17.99878951 202.87040219 -17.99493066 208.52127405 -17.97606087 214.172472 C-17.97236223 216.24938007 -17.97552032 218.32631305 -17.98594666 220.40319824 C-17.99907114 223.23309787 -17.98768516 226.0618586 -17.96995544 228.89170837 C-17.97956045 229.71845548 -17.98916546 230.54520259 -17.99906152 231.39700264 C-17.95545199 234.7674991 -17.71419384 237.13927354 -15.97873878 240.06272316 C-12.34217567 242.22150565 -8.91559924 242.10166441 -4.807724 242.05393982 C-3.48270153 242.06224141 -3.48270153 242.06224141 -2.13091093 242.07071072 C0.83496689 242.08434579 3.80000736 242.06933252 6.76586914 242.05444336 C8.889647 242.05822546 11.01342239 242.06372461 13.13719177 242.07081604 C18.90980401 242.08480114 24.68211921 242.0735797 30.45471501 242.05710483 C36.48848419 242.04327759 42.52223572 242.04971168 48.55601501 242.05323792 C58.68851523 242.05594167 68.82089709 242.04244945 78.95336914 242.01928711 C90.67887677 241.99266923 102.40418658 241.99093197 114.12971407 242.00267547 C125.39685484 242.01344252 136.66392383 242.00727508 147.93105888 241.99312019 C152.73205696 241.98735179 157.53300267 241.98744976 162.33400154 241.99218559 C167.98355024 241.99694663 173.6328814 241.98688994 179.28238869 241.96523094 C181.35971086 241.95965124 183.43705389 241.95920855 185.51437759 241.96418381 C188.34223162 241.97010884 191.16941425 241.95768523 193.99720764 241.94041443 C194.82618547 241.94642447 195.6551633 241.95243452 196.50926167 241.95862669 C200.64007961 242.01247017 200.64007961 242.01247017 204.24086243 240.26332289 C206.49848925 237.27052398 205.94114222 233.57881719 205.91220093 229.97399902 C205.91922089 228.64413286 205.91922089 228.64413286 205.92638266 227.28740072 C205.93838693 224.30473136 205.92885423 221.32251685 205.91943359 218.33984375 C205.92349688 216.20636221 205.92883739 214.07288278 205.93536377 211.93940735 C205.94907204 206.13579743 205.94372422 200.33234701 205.93422651 194.52873421 C205.92664809 188.46426071 205.93367046 182.39980116 205.93838501 176.33532715 C205.94384787 166.14979594 205.93663703 155.96432992 205.92236328 145.77880859 C205.90603579 133.99141195 205.91132392 122.20417096 205.9278425 110.41677809 C205.94144225 100.30888518 205.94338442 90.20103922 205.93552649 80.09314013 C205.93084166 74.05064879 205.93024733 68.00823069 205.94013596 61.96574402 C205.94878136 56.28585181 205.94282813 50.6061609 205.92545319 44.92629051 C205.92147535 42.83767723 205.92264441 40.7490471 205.92924118 38.66044044 C205.93739561 35.81721894 205.92720921 32.97464929 205.91220093 30.13146973 C205.92223918 28.88114338 205.92223918 28.88114338 205.93248022 27.60555792 C205.99250766 23.45860559 205.99250766 23.45860559 204.2420131 19.84197128 C201.24851976 17.58606449 197.55705459 18.14284439 193.95251465 18.17178345 C193.06593721 18.16710348 192.17935977 18.1624235 191.26591635 18.15760171 C188.28324698 18.14559744 185.30103248 18.15513014 182.31835938 18.16455078 C180.18487784 18.16048749 178.0513984 18.15514699 175.91792297 18.14862061 C170.11431306 18.13491233 164.31086264 18.14026016 158.50724983 18.14975786 C152.44277634 18.15733628 146.37831679 18.15031392 140.31384277 18.14559937 C130.12831156 18.14013651 119.94284554 18.14734734 109.75732422 18.16162109 C97.96992757 18.17794858 86.18268658 18.17266045 74.39529371 18.15614188 C64.28740081 18.14254212 54.17955485 18.14059995 44.07165575 18.14845788 C38.02916442 18.15314271 31.98674632 18.15373704 25.94425964 18.14384842 C20.26436743 18.13520301 14.58467653 18.14115625 8.90480614 18.15853119 C6.81619285 18.16250902 4.72756272 18.16133997 2.63895607 18.15474319 C-0.20426543 18.14658877 -3.04683509 18.15677517 -5.89001465 18.17178345 C-7.14034099 18.1617452 -7.14034099 18.1617452 -8.41592646 18.15150416 C-12.56323673 18.09125159 -12.56323673 18.09125159 -16.17933851 19.84312195 Z " fill="#0B0802" transform="translate(106.46875,24.447265625)"/>
<path d="M0 0 C0.66 0 1.32 0 2 0 C2 16.17 2 32.34 2 49 C15.86 49 29.72 49 44 49 C41.44888744 53.25185427 38.74756082 56.75672329 35.5 60.4375 C31.16787371 65.43456353 26.89330039 70.46982027 22.75 75.625 C22.27240234 76.20435303 21.79480469 76.78370605 21.30273438 77.38061523 C18.72442318 80.62403523 18 81.70390215 18 86 C19.46353492 87.98821756 19.46353492 87.98821756 21.5 89.8125 C22.60408203 90.864375 22.60408203 90.864375 23.73046875 91.9375 C26.37827325 94.34376639 29.07777731 96.68211663 31.79296875 99.01171875 C35.4916913 102.34384225 38.93898005 105.92943874 42.43359375 109.47265625 C44.45702683 111.46529127 46.4706435 113.29635191 48.6875 115.0625 C49.450625 115.701875 50.21375 116.34125 51 117 C51 117.66 51 118.32 51 119 C44.50082935 119.70115956 38.02102703 120.2208272 31.4921875 120.53515625 C30.21494308 120.59962196 30.21494308 120.59962196 28.91189575 120.66539001 C26.23304013 120.80007359 23.55403071 120.93135019 20.875 121.0625 C19.04165532 121.15406999 17.20832186 121.24586493 15.375 121.33789062 C10.91679191 121.56118953 6.45844264 121.78143641 2 122 C2.0309375 123.31742187 2.061875 124.63484375 2.09375 125.9921875 C2.09375 133.41065232 1.25666452 140.75471514 0.5 148.125 C0.35501823 149.57287163 0.21048369 151.02078811 0.06640625 152.46875 C-0.28391385 155.97969823 -0.64026196 159.49000274 -1 163 C-5.19625909 161.36221955 -7.98676785 158.26676818 -11.078125 155.1171875 C-11.93528107 154.25578659 -11.93528107 154.25578659 -12.80975342 153.37698364 C-14.62792945 151.5476419 -16.43901492 149.71145807 -18.25 147.875 C-19.48391329 146.63105226 -20.71828322 145.3875573 -21.953125 144.14453125 C-24.97406743 141.10157633 -27.98867092 138.05246746 -31 135 C-33.95216751 136.32899116 -36.01467471 137.77208542 -38.28393555 140.07275391 C-38.90104904 140.69324615 -39.51816254 141.3137384 -40.15397644 141.95303345 C-40.8082814 142.62079803 -41.46258636 143.28856262 -42.13671875 143.9765625 C-42.81676468 144.66181 -43.49681061 145.3470575 -44.19746399 146.05307007 C-46.36561441 148.2390171 -48.52694961 150.43154295 -50.6875 152.625 C-52.85963422 154.82470242 -55.03319135 157.02295014 -57.20967102 159.21835327 C-58.56348004 160.58447394 -59.91460798 161.95325745 -61.26286316 163.32485962 C-61.87052017 163.93904755 -62.47817719 164.55323547 -63.10424805 165.18603516 C-63.90888741 166.00305405 -63.90888741 166.00305405 -64.7297821 166.83657837 C-66 168 -66 168 -67 168 C-67 154.47 -67 140.94 -67 127 C-69.97 127.495 -69.97 127.495 -73 128 C-75.14098173 128.20359234 -77.28460333 128.38066836 -79.4296875 128.53515625 C-80.63753906 128.62216797 -81.84539062 128.70917969 -83.08984375 128.79882812 C-84.33894531 128.88583984 -85.58804688 128.97285156 -86.875 129.0625 C-88.73705078 129.19881836 -88.73705078 129.19881836 -90.63671875 129.33789062 C-96.77364959 129.7725082 -102.84770775 130.11564459 -109 130 C-108.4017493 126.65519915 -107.57916251 123.61929599 -106.34179688 120.45678711 C-106.00474731 119.58916245 -105.66769775 118.72153778 -105.32043457 117.82762146 C-104.95687866 116.90352982 -104.59332275 115.97943817 -104.21875 115.02734375 C-103.84520386 114.06727921 -103.47165771 113.10721466 -103.08679199 112.11805725 C-101.89504929 109.056352 -100.69793785 105.99678608 -99.5 102.9375 C-98.30264794 99.87442253 -97.10650142 96.81089208 -95.91320801 93.74623108 C-95.17116755 91.84098639 -94.42670526 89.93668277 -93.67956543 88.03343201 C-93.34251587 87.1689595 -93.00546631 86.304487 -92.65820312 85.41381836 C-92.36143677 84.65612656 -92.06467041 83.89843475 -91.75891113 83.11778259 C-91.02487225 81.06940735 -90.35706034 79.14826929 -90 77 C-91.42540993 74.89661388 -91.42540993 74.89661388 -93.59375 72.953125 C-94.769375 71.8084375 -94.769375 71.8084375 -95.96875 70.640625 C-96.8040625 69.85171875 -97.639375 69.0628125 -98.5 68.25 C-113.66666667 53.66666667 -113.66666667 53.66666667 -116 49 C-103.46 48.67 -90.92 48.34 -78 48 C-70.575 29.19 -70.575 29.19 -63 10 C-55.1212976 16.75317348 -55.1212976 16.75317348 -51.703125 19.98046875 C-50.97222656 20.66947266 -50.24132812 21.35847656 -49.48828125 22.06835938 C-48.74964844 22.76767578 -48.01101562 23.46699219 -47.25 24.1875 C-46.11884766 25.25387695 -46.11884766 25.25387695 -44.96484375 26.34179688 C-41.94211693 29.19540133 -38.92630937 32.04713917 -36 35 C-33.06307205 33.67462328 -30.98741819 32.23634524 -28.71606445 29.95898438 C-28.09895096 29.34494751 -27.48183746 28.73091064 -26.84602356 28.0982666 C-26.1917186 27.43677612 -25.53741364 26.77528564 -24.86328125 26.09375 C-23.84321236 25.07299377 -23.84321236 25.07299377 -22.80253601 24.03161621 C-21.36883126 22.59489479 -19.93755334 21.15574809 -18.50854492 19.71435547 C-16.31546937 17.50299413 -14.1144677 15.29976886 -11.91210938 13.09765625 C-10.52035989 11.70099245 -9.12906793 10.30387256 -7.73828125 8.90625 C-6.74771477 7.91401428 -6.74771477 7.91401428 -5.73713684 6.9017334 C-4.82565132 5.9806781 -4.82565132 5.9806781 -3.89575195 5.04101562 C-3.35932571 4.50077759 -2.82289948 3.96053955 -2.2702179 3.40393066 C-0.891082 2.0058776 -0.891082 2.0058776 0 0 Z " fill="#EA492C" transform="translate(232,71)"/>
<path d="M0 0 C0.66 0 1.32 0 2 0 C2 16.17 2 32.34 2 49 C15.86 49 29.72 49 44 49 C41.44888744 53.25185427 38.74756082 56.75672329 35.5 60.4375 C31.16787371 65.43456353 26.89330039 70.46982027 22.75 75.625 C22.27240234 76.20435303 21.79480469 76.78370605 21.30273438 77.38061523 C18.72442318 80.62403523 18 81.70390215 18 86 C19.46353492 87.98821756 19.46353492 87.98821756 21.5 89.8125 C22.60408203 90.864375 22.60408203 90.864375 23.73046875 91.9375 C26.37827325 94.34376639 29.07777731 96.68211663 31.79296875 99.01171875 C35.4916913 102.34384225 38.93898005 105.92943874 42.43359375 109.47265625 C44.45702683 111.46529127 46.4706435 113.29635191 48.6875 115.0625 C49.450625 115.701875 50.21375 116.34125 51 117 C51 117.66 51 118.32 51 119 C44.50082935 119.70115956 38.02102703 120.2208272 31.4921875 120.53515625 C30.21494308 120.59962196 30.21494308 120.59962196 28.91189575 120.66539001 C26.23304013 120.80007359 23.55403071 120.93135019 20.875 121.0625 C19.04165532 121.15406999 17.20832186 121.24586493 15.375 121.33789062 C10.91679191 121.56118953 6.45844264 121.78143641 2 122 C2.0309375 123.31742187 2.061875 124.63484375 2.09375 125.9921875 C2.09375 133.41065232 1.25666452 140.75471514 0.5 148.125 C0.35501823 149.57287163 0.21048369 151.02078811 0.06640625 152.46875 C-0.28391385 155.97969823 -0.64026196 159.49000274 -1 163 C-5.19625909 161.36221955 -7.98676785 158.26676818 -11.078125 155.1171875 C-11.93528107 154.25578659 -11.93528107 154.25578659 -12.80975342 153.37698364 C-14.62792945 151.5476419 -16.43901492 149.71145807 -18.25 147.875 C-19.48391329 146.63105226 -20.71828322 145.3875573 -21.953125 144.14453125 C-24.97406743 141.10157633 -27.98867092 138.05246746 -31 135 C-33.95216751 136.32899116 -36.01467471 137.77208542 -38.28393555 140.07275391 C-38.90104904 140.69324615 -39.51816254 141.3137384 -40.15397644 141.95303345 C-40.8082814 142.62079803 -41.46258636 143.28856262 -42.13671875 143.9765625 C-42.81676468 144.66181 -43.49681061 145.3470575 -44.19746399 146.05307007 C-46.36561441 148.2390171 -48.52694961 150.43154295 -50.6875 152.625 C-52.85963422 154.82470242 -55.03319135 157.02295014 -57.20967102 159.21835327 C-58.56348004 160.58447394 -59.91460798 161.95325745 -61.26286316 163.32485962 C-61.87052017 163.93904755 -62.47817719 164.55323547 -63.10424805 165.18603516 C-63.90888741 166.00305405 -63.90888741 166.00305405 -64.7297821 166.83657837 C-66 168 -66 168 -67 168 C-67 154.47 -67 140.94 -67 127 C-69.97 127.495 -69.97 127.495 -73 128 C-75.14098173 128.20359234 -77.28460333 128.38066836 -79.4296875 128.53515625 C-80.63753906 128.62216797 -81.84539062 128.70917969 -83.08984375 128.79882812 C-84.33894531 128.88583984 -85.58804688 128.97285156 -86.875 129.0625 C-88.73705078 129.19881836 -88.73705078 129.19881836 -90.63671875 129.33789062 C-96.77364959 129.7725082 -102.84770775 130.11564459 -109 130 C-108.4017493 126.65519915 -107.57916251 123.61929599 -106.34179688 120.45678711 C-106.00474731 119.58916245 -105.66769775 118.72153778 -105.32043457 117.82762146 C-104.95687866 116.90352982 -104.59332275 115.97943817 -104.21875 115.02734375 C-103.84520386 114.06727921 -103.47165771 113.10721466 -103.08679199 112.11805725 C-101.89504929 109.056352 -100.69793785 105.99678608 -99.5 102.9375 C-98.30264794 99.87442253 -97.10650142 96.81089208 -95.91320801 93.74623108 C-95.17116755 91.84098639 -94.42670526 89.93668277 -93.67956543 88.03343201 C-93.34251587 87.1689595 -93.00546631 86.304487 -92.65820312 85.41381836 C-92.36143677 84.65612656 -92.06467041 83.89843475 -91.75891113 83.11778259 C-91.02487225 81.06940735 -90.35706034 79.14826929 -90 77 C-91.42540993 74.89661388 -91.42540993 74.89661388 -93.59375 72.953125 C-94.769375 71.8084375 -94.769375 71.8084375 -95.96875 70.640625 C-96.8040625 69.85171875 -97.639375 69.0628125 -98.5 68.25 C-113.66666667 53.66666667 -113.66666667 53.66666667 -116 49 C-103.46 48.67 -90.92 48.34 -78 48 C-70.575 29.19 -70.575 29.19 -63 10 C-55.1212976 16.75317348 -55.1212976 16.75317348 -51.703125 19.98046875 C-50.97222656 20.66947266 -50.24132812 21.35847656 -49.48828125 22.06835938 C-48.74964844 22.76767578 -48.01101562 23.46699219 -47.25 24.1875 C-46.11884766 25.25387695 -46.11884766 25.25387695 -44.96484375 26.34179688 C-41.94211693 29.19540133 -38.92630937 32.04713917 -36 35 C-33.06307205 33.67462328 -30.98741819 32.23634524 -28.71606445 29.95898438 C-28.09895096 29.34494751 -27.48183746 28.73091064 -26.84602356 28.0982666 C-26.1917186 27.43677612 -25.53741364 26.77528564 -24.86328125 26.09375 C-23.84321236 25.07299377 -23.84321236 25.07299377 -22.80253601 24.03161621 C-21.36883126 22.59489479 -19.93755334 21.15574809 -18.50854492 19.71435547 C-16.31546937 17.50299413 -14.1144677 15.29976886 -11.91210938 13.09765625 C-10.52035989 11.70099245 -9.12906793 10.30387256 -7.73828125 8.90625 C-6.74771477 7.91401428 -6.74771477 7.91401428 -5.73713684 6.9017334 C-4.82565132 5.9806781 -4.82565132 5.9806781 -3.89575195 5.04101562 C-3.35932571 4.50077759 -2.82289948 3.96053955 -2.2702179 3.40393066 C-0.891082 2.0058776 -0.891082 2.0058776 0 0 Z M-62 16 C-68.95045242 32.74836954 -75.59143152 49.59890342 -82.06494141 66.53637695 C-85.50883674 75.54278049 -88.9839961 84.53539775 -92.515625 93.5078125 C-93.07247734 94.92466843 -93.07247734 94.92466843 -93.64057922 96.37014771 C-96.55814267 103.7926788 -96.55814267 103.7926788 -98.0196228 107.48077393 C-99.02655317 110.02194796 -100.02746888 112.56541835 -101.02734375 115.109375 C-101.32968933 115.86687042 -101.63203491 116.62436584 -101.94354248 117.40481567 C-103.12184299 120.41545229 -104 122.73638381 -104 126 C-93.37623383 126.16419528 -82.94024967 125.84200927 -72.36380005 124.83224487 C-68.5487545 124.46894541 -64.73119003 124.13355921 -60.9140625 123.79296875 C-60.15064041 123.72414993 -59.38721832 123.65533112 -58.60066223 123.58442688 C-41.09169952 122.01158527 -23.55166748 120.95237315 -6 120 C5.33657919 119.38240159 16.6713672 118.75126723 28 118 C29.16273438 117.92910156 30.32546875 117.85820312 31.5234375 117.78515625 C32.58820313 117.71167969 33.65296875 117.63820313 34.75 117.5625 C35.67296875 117.50191406 36.5959375 117.44132812 37.546875 117.37890625 C40.06297633 116.99027276 41.80680356 116.26569981 44 115 C34.77917641 105.61830865 34.77917641 105.61830865 25.0234375 96.8046875 C21.90284736 94.02145845 19.00122246 91.02166812 16.06591797 88.04638672 C13.46062493 85.41943554 10.81529015 82.89991947 8 80.5 C4.14877931 77.2169922 0.6171114 73.64595488 -2.93359375 70.046875 C-5.53905232 67.41976442 -8.18453425 64.90006916 -11 62.5 C-14.33297901 59.65877199 -17.42608801 56.61578377 -20.5 53.5 C-23.55337951 50.40508498 -26.62323685 47.38065723 -29.9375 44.5625 C-34.04032538 41.0662525 -37.78005865 37.24765165 -41.56469727 33.41577148 C-44.99746913 29.95682439 -48.53147828 26.6881528 -52.25 23.53515625 C-54.05190579 21.95446658 -55.71082589 20.28668039 -57.375 18.5625 C-59.62712763 15.76715443 -59.62712763 15.76715443 -62 16 Z " fill="#0E0B06" transform="translate(232,71)"/>
<path d="M0 0 C6.33342251 4.07554318 10.0494156 9.42271109 11.90625 16.6953125 C13.45700512 27.16290958 10.57150942 35.99318791 4.625 44.5 C-4.13998342 55.52762325 -15.61896682 62.66840301 -29.6875 64.4375 C-37.68374876 64.77101597 -45.68895146 64.6266942 -53.6875 64.4375 C-51.23177166 56.52459756 -48.01834036 49.01602721 -44.6875 41.4375 C-43.81566618 39.44930867 -42.94415458 37.46097642 -42.07275391 35.47259521 C-41.48183608 34.12457411 -40.89036323 32.77679618 -40.29833984 31.42926025 C-38.3415216 26.965505 -36.43961929 22.48224161 -34.5625 17.984375 C-33.83353516 16.26154297 -33.83353516 16.26154297 -33.08984375 14.50390625 C-32.17274841 12.33506518 -31.26853397 10.16072056 -30.37890625 7.98046875 C-29.96511719 7.01238281 -29.55132812 6.04429687 -29.125 5.046875 C-28.59712891 3.7779541 -28.59712891 3.7779541 -28.05859375 2.48339844 C-23.45142719 -4.39125537 -6.89958971 -3.12763503 0 0 Z M-15.6875 13.4375 C-19.9829925 19.93178208 -23.28621965 26.66595279 -26.5 33.75 C-27.00208984 34.83345703 -27.50417969 35.91691406 -28.02148438 37.03320312 C-28.73208008 38.5887793 -28.73208008 38.5887793 -29.45703125 40.17578125 C-29.88604736 41.11462158 -30.31506348 42.05346191 -30.75708008 43.02075195 C-31.86714115 45.47250403 -31.86714115 45.47250403 -31.6875 48.4375 C-23.25577497 48.96448281 -17.79542664 46.66782737 -11.4375 41.1875 C-6.25230062 36.24161751 -2.60466095 32.24778054 -2.1875 24.8125 C-2.35778753 21.78344605 -2.75842168 20.2925731 -4.125 17.5 C-7.71093447 14.61376006 -11.22802789 14.13496608 -15.6875 13.4375 Z " fill="#000000" transform="translate(368.6875,305.5625)"/>
<path d="M0 0 C14.85 0 29.7 0 45 0 C44.10656817 4.46715914 42.76463639 8.19614401 40.9375 12.3125 C40.65583984 12.95767578 40.37417969 13.60285156 40.08398438 14.26757812 C39.3937257 15.84698358 38.69746802 17.42376493 38 19 C41.80707525 19.75673422 44.48270231 19.72123079 48 18 C51.345045 13.42471448 53.3096275 7.92359434 55.31079102 2.65820312 C56 1 56 1 57 0 C59.01964199 -0.07244053 61.04167124 -0.08377188 63.0625 -0.0625 C64.16722656 -0.05347656 65.27195312 -0.04445313 66.41015625 -0.03515625 C67.26480469 -0.02355469 68.11945313 -0.01195312 69 0 C67.10831151 6.0269691 64.89427125 11.7694421 62.2421875 17.5 C61.8936673 18.26175537 61.54514709 19.02351074 61.18606567 19.80834961 C60.45712703 21.39911794 59.72597575 22.98887413 58.99267578 24.57763672 C57.86605617 27.01938417 56.74697091 29.46448139 55.62890625 31.91015625 C54.91710046 33.46113666 54.20487627 35.01192513 53.4921875 36.5625 C53.15677948 37.2946875 52.82137146 38.026875 52.47579956 38.78125 C50.11618427 43.88381573 50.11618427 43.88381573 49 45 C46.98035801 45.07244053 44.95832876 45.08377188 42.9375 45.0625 C41.28041016 45.04896484 41.28041016 45.04896484 39.58984375 45.03515625 C38.73519531 45.02355469 37.88054687 45.01195312 37 45 C37.45445964 43.58208592 37.91374944 42.16571954 38.375 40.75 C38.63023437 39.96109375 38.88546875 39.1721875 39.1484375 38.359375 C40 36 40 36 42 32 C39.03 32 36.06 32 33 32 C31.02 35.96 29.04 39.92 27 44 C22.71 44 18.42 44 14 44 C16.27421838 36.75423446 19.11726096 29.87948128 22.1875 22.9375 C22.88262695 21.35291992 22.88262695 21.35291992 23.59179688 19.73632812 C24.7243477 17.15598036 25.86047603 14.57727399 27 12 C23.7 12 20.4 12 17 12 C16.61070312 13.2478125 16.22140625 14.495625 15.8203125 15.78125 C13.90064798 21.53798778 11.41517784 26.99506128 8.875 32.5 C8.41996094 33.5003125 7.96492188 34.500625 7.49609375 35.53125 C4.14074248 42.85925752 4.14074248 42.85925752 3 44 C0.98035801 44.07244053 -1.04167124 44.08377188 -3.0625 44.0625 C-4.16722656 44.05347656 -5.27195313 44.04445313 -6.41015625 44.03515625 C-7.69212891 44.01775391 -7.69212891 44.01775391 -9 44 C-8.35497977 39.7428665 -6.88686447 36.27401281 -5.05859375 32.38671875 C-4.6278933 31.46509697 -4.6278933 31.46509697 -4.18849182 30.52485657 C-3.27660162 28.57662672 -2.35718807 26.632059 -1.4375 24.6875 C-0.81525374 23.36156334 -0.19350361 22.03539374 0.42773438 20.70898438 C1.94609035 17.4699404 3.47121103 14.23413516 5 11 C1.7 11.33 -1.6 11.66 -5 12 C-4.38188124 6.9005202 -2.84410149 4.97717761 0 0 Z " fill="#000000" transform="translate(227,315)"/>
<path d="M0 0 C-0.33 0.99 -0.66 1.98 -1 3 C-10.24 3.66 -19.48 4.32 -29 5 C-29 8.3 -29 11.6 -29 15 C-29.17909825 17.58898593 -29.39587237 20.17573431 -29.65625 22.7578125 C-29.72283813 23.43174042 -29.78942627 24.10566833 -29.85803223 24.80001831 C-30.0674387 26.90883473 -30.28357293 29.01689383 -30.5 31.125 C-30.64498177 32.57287163 -30.78951631 34.02078811 -30.93359375 35.46875 C-31.28391385 38.97969823 -31.64026196 42.49000274 -32 46 C-36.19625909 44.36221955 -38.98676785 41.26676818 -42.078125 38.1171875 C-42.64956238 37.54292023 -43.22099976 36.96865295 -43.80975342 36.37698364 C-45.62792945 34.5476419 -47.43901492 32.71145807 -49.25 30.875 C-50.48391329 29.63105226 -51.71828322 28.3875573 -52.953125 27.14453125 C-55.97406743 24.10157633 -58.98867092 21.05246746 -62 18 C-64.95216751 19.32899116 -67.01467471 20.77208542 -69.28393555 23.07275391 C-69.90104904 23.69324615 -70.51816254 24.3137384 -71.15397644 24.95303345 C-71.8082814 25.62079803 -72.46258636 26.28856262 -73.13671875 26.9765625 C-73.81676468 27.66181 -74.49681061 28.3470575 -75.19746399 29.05307007 C-77.36561441 31.2390171 -79.52694961 33.43154295 -81.6875 35.625 C-83.85963422 37.82470242 -86.03319135 40.02295014 -88.20967102 42.21835327 C-89.56348004 43.58447394 -90.91460798 44.95325745 -92.26286316 46.32485962 C-92.87052017 46.93904755 -93.47817719 47.55323547 -94.10424805 48.18603516 C-94.64067429 48.73071442 -95.17710052 49.27539368 -95.7297821 49.83657837 C-97 51 -97 51 -98 51 C-98 37.47 -98 23.94 -98 10 C-98.99 10 -99.98 10 -101 10 C-100.67 9.01 -100.34 8.02 -100 7 C-77.32553992 3.95514393 -54.44119316 2.90818234 -31.61010742 1.69726562 C-30.15933426 1.61994509 -28.70856912 1.54247395 -27.2578125 1.46484375 C-26.20969139 1.40881485 -26.20969139 1.40881485 -25.14039612 1.35165405 C-19.4035929 1.03774088 -13.67700584 0.63037992 -7.94873047 0.18579102 C-5.28841379 0.01817212 -2.66446636 -0.0348397 0 0 Z " fill="#0A0704" transform="translate(263,188)"/>
<path d="M0 0 C11.88 0 23.76 0 36 0 C32.98078115 7.54804712 32.98078115 7.54804712 30 11 C26.69843543 11.54965807 23.73304793 11.55713826 20.40039062 11.41015625 C18.1758425 11.34924108 18.1758425 11.34924108 15 12 C12.94835991 14.90247206 12.94835991 14.90247206 12 18 C16.29 18 20.58 18 25 18 C21.74093264 24.95854922 21.74093264 24.95854922 19 28 C15.28274719 29.15749848 11.86827296 29.23402363 8 29 C7.01 31.31 6.02 33.62 5 36 C9.82706138 36.82117169 14.51201442 37.19320283 19 35 C24.88463242 29.20432133 28.58059083 20.84841916 32.23046875 13.53417969 C38.57986286 0.81957072 38.57986286 0.81957072 42.99121094 -0.67431641 C47.76702745 -1.35946813 52.27707528 -0.84379796 57 0 C55.87717216 5.27362861 54.62761231 10.48763067 53.19799805 15.6862793 C50.53524546 25.38082645 48.56345726 35.07268192 47 45 C44.03 45 41.06 45 38 45 C37.89042969 44.30132812 37.78085938 43.60265625 37.66796875 42.8828125 C37.50941406 41.97273438 37.35085937 41.06265625 37.1875 40.125 C37.03667969 39.22007812 36.88585937 38.31515625 36.73046875 37.3828125 C36.16948699 34.65587522 36.16948699 34.65587522 33 33 C32.7525 33.680625 32.505 34.36125 32.25 35.0625 C30.78309637 38.50972352 28.8587113 41.74725523 27 45 C14.46 45 1.92 45 -11 45 C-9.2571399 39.7714197 -7.56795432 34.73349708 -5.51953125 29.65234375 C-4.85727539 28.00395508 -4.85727539 28.00395508 -4.18164062 26.32226562 C-3.50391602 24.64680664 -3.50391602 24.64680664 -2.8125 22.9375 C-2.34908203 21.78572266 -1.88566406 20.63394531 -1.40820312 19.44726562 C-0.2745028 16.63054626 0.86161501 13.81482853 2 11 C0.35 11.33 -1.3 11.66 -3 12 C-2.4721307 7.51311093 -1.70509 4.26272499 0 0 Z M40 20 C38.515 23.465 38.515 23.465 37 27 C37.99 27 38.98 27 40 27 C40.33 24.69 40.66 22.38 41 20 C40.67 20 40.34 20 40 20 Z " fill="#000000" transform="translate(121,315)"/>
<path d="M0 0 C4.62 0 9.24 0 14 0 C13.24240568 4.54556592 12.57327363 7.44706398 10.8203125 11.51953125 C10.38589844 12.54240234 9.95148437 13.56527344 9.50390625 14.61914062 C9.04886719 15.67294922 8.59382813 16.72675781 8.125 17.8125 C1.70497616 31.39391457 1.70497616 31.39391457 0 46 C0.495 46.495 0.495 46.495 1 47 C6.33908363 46.89321833 9.52716974 45.59468597 13.27905273 41.96020508 C19.8080817 34.52346603 22.71973872 23.50067875 26.3125 14.375 C26.86743175 12.97509909 27.42276759 11.5753583 27.97851562 10.17578125 C29.3244197 6.78594835 30.66200401 3.39300419 32 0 C37.28 0 42.56 0 48 0 C47.12387239 4.38063807 45.97498412 7.79093184 44.26953125 11.8828125 C43.99662766 12.53772675 43.72372406 13.19264099 43.44255066 13.86740112 C42.86402084 15.25177228 42.28310356 16.63514783 41.69995117 18.01757812 C40.8253498 20.09448569 39.96200418 22.1758121 39.09960938 24.2578125 C26.59469985 54.20982431 26.59469985 54.20982431 12.19140625 60.3203125 C4.40291039 62.73599571 -3.24185143 64.12961407 -11 61 C-14.44523005 58.87985843 -15.38610268 56.46126537 -16.4375 52.6875 C-19.23010506 35.08640202 -7.94967145 15.10437576 0 0 Z " fill="#000000" transform="translate(36,306)"/>
<path d="M0 0 C1.08462524 0.39388412 2.16925049 0.78776825 3.28674316 1.19358826 C4.44830933 1.61962845 5.60987549 2.04566864 6.80664062 2.48461914 C8.00848999 2.92238174 9.21033936 3.36014435 10.4486084 3.81117249 C12.98786043 4.73619851 15.52625118 5.66353549 18.06396484 6.59277344 C21.30753375 7.78047186 24.55246938 8.96437686 27.797966 10.14679623 C33.17518961 12.10605774 38.55149479 14.06785303 43.92578125 16.03515625 C44.87666626 16.38299667 45.82755127 16.7308371 46.80725098 17.08921814 C49.37532995 18.04953271 51.92160198 19.05339194 54.46289062 20.08227539 C54.46289062 20.41227539 54.46289062 20.74227539 54.46289062 21.08227539 C53.31103271 21.16268066 52.1591748 21.24308594 50.97241211 21.32592773 C45.61490227 21.70065152 40.2575988 22.07826445 34.90039062 22.45727539 C33.92775269 22.5260791 32.95511475 22.59488281 31.95300293 22.66577148 C21.69874377 23.39340283 11.44840197 24.12117012 1.21289062 25.08227539 C-10.4781869 26.16751819 -22.19633203 26.88582504 -33.91210938 27.64477539 C-34.90279419 27.70898682 -35.893479 27.77319824 -36.91418457 27.83935547 C-49.11949435 28.62777425 -61.32656011 29.37966403 -73.53710938 30.08227539 C-71.98876951 26.98559567 -68.96425566 26.15486628 -65.95507812 24.71118164 C-64.48625466 23.99243917 -63.0180294 23.27247336 -61.55029297 22.55151367 C-60.34490875 21.96095184 -60.34490875 21.96095184 -59.11517334 21.35845947 C-55.41597692 19.52729638 -51.74386885 17.64454264 -48.07058716 15.76205444 C-44.03639957 13.69615184 -39.99400375 11.64657329 -35.95141602 9.59716797 C-33.86138137 8.53430187 -31.77385724 7.46648633 -29.6887207 6.39404297 C-26.64075308 4.82778219 -23.58421252 3.27955089 -20.52539062 1.73461914 C-19.59519608 1.25145737 -18.66500153 0.76829559 -17.70661926 0.27049255 C-16.83768539 -0.16423874 -15.96875153 -0.59897003 -15.07348633 -1.046875 C-14.3156636 -1.4335585 -13.55784088 -1.820242 -12.77705383 -2.21864319 C-8.33455326 -3.60513721 -4.20906109 -1.53618248 0 0 Z " fill="#040100" transform="translate(207.537109375,163.917724609375)"/>
<path d="M0 0 C2.64 0 5.28 0 8 0 C9.65 6.93 11.3 13.86 13 21 C15.9522037 14.05833185 18.723036 7.19041263 21 0 C25.29 0 29.58 0 34 0 C33.34130419 3.95217488 32.86606289 6.77358195 31.50952148 10.35302734 C31.20928574 11.15340424 30.90904999 11.95378113 30.59971619 12.77841187 C30.27677078 13.62239532 29.95382538 14.46637878 29.62109375 15.3359375 C29.12380516 16.65496567 29.12380516 16.65496567 28.61647034 18.00064087 C27.56196571 20.79407441 26.49985517 23.58454387 25.4375 26.375 C24.71889623 28.27454869 24.00079173 30.17428633 23.28320312 32.07421875 C21.52790987 36.718354 19.76579202 41.35984698 18 46 C14.04 46 10.08 46 6 46 C3.525 38.08 3.525 38.08 1 30 C0.61070313 31.20398438 0.22140625 32.40796875 -0.1796875 33.6484375 C-4.52671488 46.10312099 -4.52671488 46.10312099 -8.5859375 48.57421875 C-11.17051115 49.04793093 -13.38431684 49.18748778 -16 49 C-16.99 49 -17.98 49 -19 49 C-17.12708067 42.44209553 -14.98565066 36.08022289 -12.4609375 29.74609375 C-12.13461334 28.91916519 -11.80828918 28.09223663 -11.47207642 27.24024963 C-10.78999295 25.51444915 -10.10592456 23.7894319 -9.41992188 22.06518555 C-8.36590242 19.41462213 -7.31924189 16.76123594 -6.2734375 14.10742188 C-5.60719837 12.42430987 -4.94054697 10.74136098 -4.2734375 9.05859375 C-3.95990326 8.26392197 -3.64636902 7.46925018 -3.32333374 6.65049744 C-1.11563144 1.11563144 -1.11563144 1.11563144 0 0 Z " fill="#000000" transform="translate(84,315)"/>
<path d="M0 0 C1.66579102 -0.0309375 1.66579102 -0.0309375 3.36523438 -0.0625 C13.66406162 -0.11180617 13.66406162 -0.11180617 18.4375 3.25 C19.99694339 6.36888678 19.72066275 8.7954145 19.4375 12.25 C18.39261128 14.7999616 17.00145433 16.98853294 15.4375 19.25 C14.880625 20.095625 14.32375 20.94125 13.75 21.8125 C10.95354427 24.7601155 7.88784345 26.76049806 4.4609375 28.91796875 C2.32925091 30.22370658 2.32925091 30.22370658 0.4375 32.25 C1.22125 32.9925 2.005 33.735 2.8125 34.5 C6.47454509 38.33642819 7.4375 39.92317677 7.4375 45.25 C3.05393356 45.59207021 -1.1914871 45.7990949 -5.5625 45.25 C-8.0625 42.3125 -8.0625 42.3125 -9.5625 39.25 C-12.19016389 38.28780298 -12.19016389 38.28780298 -14.5625 38.25 C-15.5525 40.56 -16.5425 42.87 -17.5625 45.25 C-23.9975 45.745 -23.9975 45.745 -30.5625 46.25 C-29.02774756 41.64574269 -27.41235546 37.65061214 -25.3046875 33.3203125 C-24.99677277 32.68511688 -24.68885803 32.04992126 -24.37161255 31.39547729 C-23.39700633 29.38696251 -22.41734669 27.38096259 -21.4375 25.375 C-20.77179859 24.00537199 -20.10643067 22.63558185 -19.44140625 21.265625 C-17.81895542 17.92520006 -16.19196613 14.58700953 -14.5625 11.25 C-17.5325 11.91 -20.5025 12.57 -23.5625 13.25 C-21.8125 4.625 -21.8125 4.625 -19.5625 1.25 C-13.18836097 -0.2580494 -6.51770237 0.03036786 0 0 Z M-1.5625 11.25 C-3.5425 14.88 -5.5225 18.51 -7.5625 22.25 C-4.42288418 23.6836833 -4.42288418 23.6836833 -1.0625 21.5625 C1.7662754 19.81848805 3.91660256 18.29179488 5.4375 15.25 C5.22032648 13.04199472 5.22032648 13.04199472 4.4375 11.25 C2.4575 11.25 0.4775 11.25 -1.5625 11.25 Z " fill="#000000" transform="translate(201.5625,313.75)"/>
<path d="M0 0 C11.55 0 23.1 0 35 0 C34.07988583 4.60057086 32.89559434 7.79672559 31 12 C30.44014404 11.97381592 29.88028809 11.94763184 29.3034668 11.9206543 C26.76509706 11.81667669 24.22717447 11.7516795 21.6875 11.6875 C20.80642578 11.64560547 19.92535156 11.60371094 19.01757812 11.56054688 C18.17001953 11.54443359 17.32246094 11.52832031 16.44921875 11.51171875 C15.27879028 11.47244263 15.27879028 11.47244263 14.0847168 11.43237305 C11.2475827 11.94652895 11.2475827 11.94652895 9 17 C15.93 17.495 15.93 17.495 23 18 C22 23 22 23 19 29 C14.05 29 9.1 29 4 29 C2.02 32.465 2.02 32.465 0 36 C1.68029297 36.09087891 1.68029297 36.09087891 3.39453125 36.18359375 C4.86719984 36.26801424 6.33985544 36.35266149 7.8125 36.4375 C8.55048828 36.47681641 9.28847656 36.51613281 10.04882812 36.55664062 C13.23071342 36.74381035 15.96162378 36.98720793 19 38 C18.52269162 39.4589426 18.04308958 40.91713496 17.5625 42.375 C17.29566406 43.18710937 17.02882813 43.99921875 16.75390625 44.8359375 C16 47 16 47 15 49 C10.76365696 48.59612263 6.52785534 48.18707207 2.29248047 47.77319336 C0.8512124 47.63309262 -0.59019456 47.49441322 -2.03173828 47.35717773 C-4.1022689 47.1598147 -6.17224825 46.95736639 -8.2421875 46.75390625 C-10.11173096 46.57323608 -10.11173096 46.57323608 -12.01904297 46.38891602 C-15 46 -15 46 -17 45 C-16.37166682 40.66556602 -14.81372232 37.28112782 -12.83984375 33.38671875 C-12.53051407 32.77230423 -12.22118439 32.15788971 -11.90248108 31.52485657 C-10.91978419 29.5761644 -9.92879726 27.63182887 -8.9375 25.6875 C-8.26702497 24.3616077 -7.59709714 23.03543854 -6.92773438 21.70898438 C-5.29147782 18.46942749 -3.64776275 15.23372251 -2 12 C-2.99 12 -3.98 12 -5 12 C-4.38188124 6.9005202 -2.84410149 4.97717761 0 0 Z " fill="#000000" transform="translate(299,315)"/>
<path d="M0 0 C1.61511135 2.42266703 2.60199722 4.28428227 3.63232422 6.94555664 C3.93959442 7.73390396 4.24686462 8.52225128 4.56344604 9.33448792 C4.89055573 10.18445847 5.21766541 11.03442902 5.5546875 11.91015625 C5.89750763 12.79223251 6.24032776 13.67430878 6.59353638 14.58311462 C7.69075224 17.40827328 8.7830128 20.23531675 9.875 23.0625 C10.96091118 25.86426683 12.04783505 28.66563878 13.13504028 31.46690369 C13.81056892 33.20851484 14.48517249 34.95048521 15.15866089 36.69288635 C15.47223541 37.5032988 15.78580994 38.31371124 16.10888672 39.14868164 C16.56735992 40.33386887 16.56735992 40.33386887 17.03509521 41.54299927 C18.40521334 45.03182146 19.82956606 48.4983439 21.25930786 51.96311951 C22 54 22 54 22 56 C13.86079409 53.67971015 5.894944 50.94017857 -2.0625 48.0625 C-3.91391602 47.41764648 -3.91391602 47.41764648 -5.80273438 46.75976562 C-6.97255859 46.33501953 -8.14238281 45.91027344 -9.34765625 45.47265625 C-10.40992432 45.09375244 -11.47219238 44.71484863 -12.56665039 44.32446289 C-15 43 -15 43 -15.72332764 41.1424408 C-16.19225582 37.51124738 -14.47798636 34.38824527 -13.10546875 31.09375 C-12.79805252 30.33203491 -12.49063629 29.57031982 -12.17390442 28.78552246 C-11.18885537 26.35262872 -10.18823558 23.9264773 -9.1875 21.5 C-8.52440084 19.86628681 -7.86228002 18.23217616 -7.20117188 16.59765625 C-2.00070163 3.79352218 -2.00070163 3.79352218 0 0 Z " fill="#060201" transform="translate(173,97)"/>
<path d="M0 0 C1.17512829 3.40686342 0.84059041 5.2192738 -0.47192383 8.53955078 C-0.82042389 9.43714615 -1.16892395 10.33474152 -1.52798462 11.25953674 C-2.1116127 12.71274574 -2.1116127 12.71274574 -2.70703125 14.1953125 C-3.10368988 15.20838974 -3.50034851 16.22146698 -3.9090271 17.26524353 C-5.2000145 20.5559338 -6.50617286 23.84037288 -7.8125 27.125 C-8.69358852 29.36340868 -9.57355344 31.60225995 -10.45239258 33.84155273 C-12.17873433 38.23754601 -13.91000762 42.63154052 -15.64550781 47.02392578 C-18.53801316 54.35298516 -21.37211475 61.70350529 -24.1875 69.0625 C-24.9517224 71.053424 -25.71603152 73.04431472 -26.48046875 75.03515625 C-26.98709965 76.35672465 -27.49366598 77.67831782 -28 79 C-27.25951416 78.93941406 -26.51902832 78.87882812 -25.75610352 78.81640625 C-22.35852633 78.54054707 -18.96052892 78.27023551 -15.5625 78 C-14.39783203 77.90460938 -13.23316406 77.80921875 -12.03320312 77.7109375 C-5.66448898 77.20861638 0.61175303 76.8906824 7 77 C6.505 78.485 6.505 78.485 6 80 C2.83270007 81.05576664 0.19033532 81.29894583 -3.13671875 81.53515625 C-4.35423828 81.62216797 -5.57175781 81.70917969 -6.82617188 81.79882812 C-8.10041016 81.88583984 -9.37464844 81.97285156 -10.6875 82.0625 C-12.56985352 82.19881836 -12.56985352 82.19881836 -14.49023438 82.33789062 C-20.67511008 82.77105991 -26.79998351 83.11698144 -33 83 C-32.4017493 79.65519915 -31.57916251 76.61929599 -30.34179688 73.45678711 C-30.00474731 72.58916245 -29.66769775 71.72153778 -29.32043457 70.82762146 C-28.95687866 69.90352982 -28.59332275 68.97943817 -28.21875 68.02734375 C-27.84520386 67.06727921 -27.47165771 66.10721466 -27.08679199 65.11805725 C-25.89504929 62.056352 -24.69793785 58.99678608 -23.5 55.9375 C-22.30264794 52.87442253 -21.10650142 49.81089208 -19.91320801 46.74623108 C-19.17116755 44.84098639 -18.42670526 42.93668277 -17.67956543 41.03343201 C-17.34251587 40.1689595 -17.00546631 39.304487 -16.65820312 38.41381836 C-16.36143677 37.65612656 -16.06467041 36.89843475 -15.75891113 36.11778259 C-15.02487225 34.06940735 -14.35706034 32.14826929 -14 30 C-15.42540993 27.89661388 -15.42540993 27.89661388 -17.59375 25.953125 C-18.3775 25.19 -19.16125 24.426875 -19.96875 23.640625 C-20.8040625 22.85171875 -21.639375 22.0628125 -22.5 21.25 C-37.66666667 6.66666667 -37.66666667 6.66666667 -40 2 C-38.85934082 1.97494385 -37.71868164 1.9498877 -36.54345703 1.92407227 C-32.32035659 1.83005707 -28.09742291 1.72982213 -23.87451172 1.62768555 C-22.04512425 1.58431435 -20.21569573 1.54264089 -18.38623047 1.50268555 C-15.75996514 1.44503582 -13.1339069 1.38132635 -10.5078125 1.31640625 C-9.27649094 1.29133751 -9.27649094 1.29133751 -8.02029419 1.26576233 C-3.8766304 1.2568613 -3.8766304 1.2568613 0 0 Z " fill="#0B0906" transform="translate(156,118)"/>
<path d="M0 0 C0 20.13 0 40.26 0 61 C-4 58 -4 58 -4.48101807 56.12068176 C-4.47213562 55.41674789 -4.46325317 54.71281403 -4.45410156 53.98754883 C-4.45364838 52.7866436 -4.45364838 52.7866436 -4.45318604 51.56147766 C-4.43254089 50.70201035 -4.41189575 49.84254303 -4.390625 48.95703125 C-4.38496521 48.0734343 -4.37930542 47.18983734 -4.37347412 46.27946472 C-4.35107867 43.45659257 -4.30087727 40.63498862 -4.25 37.8125 C-4.22993906 35.89910687 -4.21168758 33.98569385 -4.1953125 32.07226562 C-4.15460415 27.38062851 -4.07632283 22.69173398 -4 18 C-7.96 27.24 -11.92 36.48 -16 46 C-20.00876166 42.56391858 -24.00041931 39.13808738 -27.9375 35.625 C-28.70964844 34.93664062 -29.48179687 34.24828125 -30.27734375 33.5390625 C-31.13005859 32.77722656 -31.13005859 32.77722656 -32 32 C-26.71120198 25.52756334 -20.83581643 19.68353602 -14.92114258 13.79077148 C-13.17085124 12.04590282 -11.42604674 10.29567217 -9.68164062 8.54492188 C-8.57323772 7.43717867 -7.46452524 6.3297451 -6.35546875 5.22265625 C-5.83260788 4.69777115 -5.30974701 4.17288605 -4.77104187 3.63209534 C-1.114991 0 -1.114991 0 0 0 Z " fill="#73BA94" transform="translate(231,78)"/>
<path d="M0 0 C2 0.6875 2 0.6875 4 2.6875 C4.125 5.3125 4.125 5.3125 4 7.6875 C5.32 7.6875 6.64 7.6875 8 7.6875 C7.938125 6.924375 7.87625 6.16125 7.8125 5.375 C8 2.6875 8 2.6875 9.1875 0.8125 C11 -0.3125 11 -0.3125 13.34375 -0.30078125 C17.19737502 1.13299394 18.45658966 3.92025989 20.3125 7.375 C20.67150391 7.98794922 21.03050781 8.60089844 21.40039062 9.23242188 C23.60362593 13.18985214 24.6022233 16.17406297 24 20.6875 C21.51397551 24.05094489 20.08574477 25.48807749 15.9375 26.25 C12.25654231 25.54513576 11.12999649 24.7641616 9 21.6875 C8.25 17.9375 8.25 17.9375 8 14.6875 C6.68 14.6875 5.36 14.6875 4 14.6875 C3.9175 15.76 3.835 16.8325 3.75 17.9375 C2.93366666 22.0191667 2.41620723 23.37925187 -1 25.6875 C-3.9375 26.25 -3.9375 26.25 -7 25.6875 C-9.875 23.5625 -9.875 23.5625 -12 20.6875 C-12.73559235 15.34679307 -10.82322963 11.8144747 -8.125 7.375 C-7.76019531 6.74271484 -7.39539063 6.11042969 -7.01953125 5.45898438 C-3.48086242 -0.54388475 -3.48086242 -0.54388475 0 0 Z " fill="#1B1405" transform="translate(270,65.3125)"/>
<path d="M0 0 C3.09375 -0.020625 6.1875 -0.04125 9.375 -0.0625 C10.34872559 -0.071604 11.32245117 -0.08070801 12.32568359 -0.09008789 C13.47544678 -0.09383423 13.47544678 -0.09383423 14.6484375 -0.09765625 C15.43395996 -0.10289307 16.21948242 -0.10812988 17.02880859 -0.11352539 C19 0 19 0 21 1 C21 2.32 21 3.64 21 5 C24.96 4.34 28.92 3.68 33 3 C33 8.61 33 14.22 33 20 C28.40708911 21.83716436 26.14798451 22.27194476 21.375 22.25 C20.24835938 22.25515625 19.12171875 22.2603125 17.9609375 22.265625 C15 22 15 22 12 20 C12 19.01 12 18.02 12 17 C9.03 17.66 6.06 18.32 3 19 C3 22.96 3 26.92 3 31 C2.01 31 1.02 31 0 31 C0 20.77 0 10.54 0 0 Z " fill="#271E08" transform="translate(106,63)"/>
<path d="M0 0 C0 2 0 2 -2.07739258 4.19799805 C-3.05066359 5.13296929 -4.02495056 6.06688357 -5 7 C-6.06926979 8.0733306 -7.13509978 9.15009577 -8.19799805 10.22973633 C-11.34645689 13.41361799 -14.50086521 16.59153006 -17.6574707 19.76733398 C-19.01796609 21.13797377 -20.37667377 22.5103902 -21.73364258 23.88452148 C-23.69669009 25.8716961 -25.6660109 27.85245706 -27.63671875 29.83203125 C-28.24505051 30.45068558 -28.85338226 31.0693399 -29.48014832 31.70674133 C-30.9492888 33.1762751 -32.47015287 34.5937742 -34 36 C-34.66 36 -35.32 36 -36 36 C-36 24.78 -36 13.56 -36 2 C-34.68 2 -33.36 2 -32 2 C-31.67 8.6 -31.34 15.2 -31 22 C-28.03 15.07 -25.06 8.14 -22 1 C-14.63086524 0.31449909 -7.39963657 -0.1473379 0 0 Z " fill="#73BA93" transform="translate(204,195)"/>
<path d="M0 0 C3.71757722 1.33271636 5.50403429 2.33871239 7.875 5.5 C9 8 9 8 9 11 C10.32 11 11.64 11 13 11 C13 11.99 13 12.98 13 14 C11.68 14 10.36 14 9 14 C8.773125 14.9075 8.54625 15.815 8.3125 16.75 C6.58076137 21.0381147 4.08020427 22.95989786 0 25 C-4.17433895 25.40137875 -6.49551713 25.26194303 -10.25 23.3125 C-12.9787399 21.01787781 -14.48241923 19.20378162 -16 16 C-16 15.34 -16 14.68 -16 14 C-17.32 14 -18.64 14 -20 14 C-20 13.01 -20 12.02 -20 11 C-18.68 11 -17.36 11 -16 11 C-15.79375 10.113125 -15.5875 9.22625 -15.375 8.3125 C-12.39947835 1.14419784 -7.33656556 -1.33258975 0 0 Z " fill="#1D1606" transform="translate(126,223)"/>
<path d="M0 0 C11.88 0 23.76 0 36 0 C32.27755683 4.96325756 28.60009367 9.7601288 24.5625 14.4375 C20.22198238 19.51219026 16.03188605 24.67460785 12 30 C11.34 29.67 10.68 29.34 10 29 C11.53526127 23.91809087 14.67369658 20.57522114 18.125 16.6875 C18.68832031 16.04232422 19.25164062 15.39714844 19.83203125 14.73242188 C21.21541508 13.14973699 22.60691045 11.57414859 24 10 C21.47632562 10 19.83674772 10.78867974 17.5 11.75 C16.613125 12.1109375 15.72625 12.471875 14.8125 12.84375 C13.884375 13.2253125 12.95625 13.606875 12 14 C10.16796642 14.75316936 8.33468963 15.50332399 6.5 16.25 C5.6853125 16.58515625 4.870625 16.9203125 4.03125 17.265625 C2 18 2 18 0 18 C0 12.06 0 6.12 0 0 Z " fill="#578180" transform="translate(234,123)"/>
<path d="M0 0 C0.23899916 7.82279645 -0.49940241 15.37262228 -1.5 23.125 C-1.71462891 24.84589844 -1.71462891 24.84589844 -1.93359375 26.6015625 C-2.28362028 29.40177471 -2.6391896 32.20116048 -3 35 C-8.99500997 30.03805145 -14.46427037 24.6523376 -19.9375 19.125 C-20.81212891 18.24585938 -21.68675781 17.36671875 -22.58789062 16.4609375 C-24.72757048 14.3095654 -26.86486597 12.15588208 -29 10 C-28.67 9.34 -28.34 8.68 -28 8 C-25.05886531 9.33534276 -22.89154831 10.82464881 -20.546875 13.0390625 C-19.928125 13.61914062 -19.309375 14.19921875 -18.671875 14.796875 C-18.03765625 15.40015625 -17.4034375 16.0034375 -16.75 16.625 C-16.1003125 17.23601562 -15.450625 17.84703125 -14.78125 18.4765625 C-13.18354937 19.98028074 -11.59000851 21.48815737 -10 23 C-10.42152344 21.91460937 -10.84304687 20.82921875 -11.27734375 19.7109375 C-11.83102409 18.26573796 -12.38439305 16.82041909 -12.9375 15.375 C-13.35418945 14.30572266 -13.35418945 14.30572266 -13.77929688 13.21484375 C-15.32728612 9.14904068 -16.45835952 5.34683625 -17 1 C-15.10440036 0.83069605 -13.20850769 0.66467136 -11.3125 0.5 C-10.25675781 0.4071875 -9.20101562 0.314375 -8.11328125 0.21875 C-5.39201608 0.02754442 -2.7257072 -0.01616431 0 0 Z " fill="#557D7C" transform="translate(231,193)"/>
<path d="M0 0 C9.9 0 19.8 0 30 0 C28.68 3.63 27.36 7.26 26 11 C21.53672476 12.11581881 20.39238394 11.68986512 16.25 10.0625 C15.26515625 9.68222656 14.2803125 9.30195313 13.265625 8.91015625 C12.51796875 8.60980469 11.7703125 8.30945313 11 8 C11.7940625 8.75925781 12.588125 9.51851562 13.40625 10.30078125 C14.43789055 11.30428615 15.46911931 12.30821452 16.5 13.3125 C17.02464844 13.81201172 17.54929688 14.31152344 18.08984375 14.82617188 C19.4510846 16.16089504 20.73139516 17.5769384 22 19 C22 19.99 22 20.98 22 22 C12.86064762 17.89824272 6.09817791 7.62272239 0 0 Z " fill="#557D7C" transform="translate(123,123)"/>
<path d="M0 0 C1.05989989 3.1997842 0.96287408 4.91268415 -0.26342773 8.03417969 C-0.56381454 8.81468689 -0.86420135 9.59519409 -1.1736908 10.39935303 C-1.67359276 11.6480014 -1.67359276 11.6480014 -2.18359375 12.921875 C-2.51794937 13.78186096 -2.85230499 14.64184692 -3.1967926 15.52789307 C-4.26671597 18.27276034 -5.35186638 21.01131337 -6.4375 23.75 C-7.16572468 25.61028158 -7.89295062 27.47095446 -8.61914062 29.33203125 C-10.40120456 33.89264165 -12.19694782 38.4476488 -14 43 C-12.88927124 42.90912109 -12.88927124 42.90912109 -11.75610352 42.81640625 C-8.35852633 42.54054707 -4.96052892 42.27023551 -1.5625 42 C-0.39783203 41.90460938 0.76683594 41.80921875 1.96679688 41.7109375 C8.33551102 41.20861638 14.61175303 40.8906824 21 41 C20.67 41.99 20.34 42.98 20 44 C16.83270007 45.05576664 14.19033532 45.29894583 10.86328125 45.53515625 C9.03700195 45.66567383 9.03700195 45.66567383 7.17382812 45.79882812 C5.2624707 45.9293457 5.2624707 45.9293457 3.3125 46.0625 C2.05759766 46.15337891 0.80269531 46.24425781 -0.49023438 46.33789062 C-6.67511008 46.77105991 -12.79998351 47.11698144 -19 47 C-18.25733302 41.92262263 -16.32630574 37.33007139 -14.47265625 32.578125 C-14.12367783 31.67753357 -13.7746994 30.77694214 -13.41514587 29.84906006 C-12.6783906 27.95209243 -11.93945644 26.05596978 -11.19848633 24.16064453 C-10.06231136 21.24951666 -8.93808352 18.33395779 -7.81445312 15.41796875 C-7.09707674 13.57523937 -6.37900201 11.73278168 -5.66015625 9.890625 C-5.32363541 9.01464661 -4.98711456 8.13866821 -4.64039612 7.23614502 C-4.32344284 6.43150818 -4.00648956 5.62687134 -3.67993164 4.79785156 C-3.40315079 4.0867926 -3.12636993 3.37573364 -2.84120178 2.64312744 C-2 1 -2 1 0 0 Z " fill="#160C04" transform="translate(142,154)"/>
<path d="M0 0 C0 3.96 0 7.92 0 12 C-10.5 14 -10.5 14 -15 14 C-15 10.04 -15 6.08 -15 2 C-9.29507396 -0.28197042 -6.04215727 -0.16112419 0 0 Z " fill="#DFA930" transform="translate(124,65)"/>
<path d="M0 0 C0.66 0.33 1.32 0.66 2 1 C0.59155282 4.21524305 -1.10344786 6.32183868 -3.625 8.75 C-4.25664062 9.36359375 -4.88828125 9.9771875 -5.5390625 10.609375 C-6.26222656 11.29773438 -6.26222656 11.29773438 -7 12 C-6.60167969 12.45890625 -6.20335937 12.9178125 -5.79296875 13.390625 C-3.08857938 16.52271585 -0.42008229 19.63877459 2 23 C-2 23 -2 23 -3.921875 21.46875 C-4.82679688 20.49421875 -4.82679688 20.49421875 -5.75 19.5 C-6.36359375 18.8503125 -6.9771875 18.200625 -7.609375 17.53125 C-8.06828125 17.0259375 -8.5271875 16.520625 -9 16 C-11.96810069 17.32919292 -14.00563789 18.77862143 -16.25 21.125 C-17.1575 22.07375 -18.065 23.0225 -19 24 C-19.99 23.67 -20.98 23.34 -22 23 C-21.60167969 22.54109375 -21.20335937 22.0821875 -20.79296875 21.609375 C-19.99826172 20.68898437 -19.99826172 20.68898437 -19.1875 19.75 C-18.66542969 19.14671875 -18.14335937 18.5434375 -17.60546875 17.921875 C-15.99707924 15.99650362 -14.48780592 14.01948431 -13 12 C-13.6496875 11.37351563 -14.299375 10.74703125 -14.96875 10.1015625 C-15.8040625 9.28429687 -16.639375 8.46703125 -17.5 7.625 C-18.3353125 6.81289062 -19.170625 6.00078125 -20.03125 5.1640625 C-22 3 -22 3 -22 1 C-18.37386801 1.56959153 -16.74482259 2.92374534 -14.25 5.5625 C-13.63640625 6.20316406 -13.0228125 6.84382812 -12.390625 7.50390625 C-11.70226562 8.24447266 -11.70226562 8.24447266 -11 9 C-7.78475695 7.59155282 -5.67816132 5.89655214 -3.25 3.375 C-2.63640625 2.74335938 -2.0228125 2.11171875 -1.390625 1.4609375 C-0.93171875 0.97882813 -0.4728125 0.49671875 0 0 Z " fill="#1C1506" transform="translate(286,223)"/>
<path d="M0 0 C0.08086147 1.79093191 0.13912702 3.58289628 0.1875 5.375 C0.22230469 6.37273437 0.25710937 7.37046875 0.29296875 8.3984375 C0.19628906 9.25695312 0.09960938 10.11546875 0 11 C-3.42094242 13.28062828 -4.68187222 13.21925007 -8.6875 13.125 C-10.17830078 13.09792969 -10.17830078 13.09792969 -11.69921875 13.0703125 C-12.45847656 13.04710938 -13.21773438 13.02390625 -14 13 C-14 12.34 -14 11.68 -14 11 C-12.68 10.67 -11.36 10.34 -10 10 C-10 7.03 -10 4.06 -10 1 C-6.56484998 0.37542727 -3.50935186 0 0 0 Z " fill="#DDA830" transform="translate(137,70)"/>
<path d="M0 0 C3.54326134 0.74395879 5.13315931 2.60053146 7.1953125 5.4609375 C7.1953125 6.4509375 7.1953125 7.4409375 7.1953125 8.4609375 C0.9253125 8.4609375 -5.3446875 8.4609375 -11.8046875 8.4609375 C-10.05168464 1.44892606 -6.95785527 -0.29852184 0 0 Z " fill="#E0AA30" transform="translate(124.8046875,225.5390625)"/>
<path d="M0 0 C6.27 0 12.54 0 19 0 C17.83594603 4.65621589 17.01885656 5.55373949 13 8 C8.78791689 8.60172616 6.77631152 8.47253745 3.125 6.25 C1 4 1 4 0 0 Z " fill="#E1AB31" transform="translate(113,237)"/>
<path d="M0 0 C0.99 0.33 1.98 0.66 3 1 C4.55421729 1.08106686 6.11167027 1.10756898 7.66796875 1.09765625 C8.56064453 1.09443359 9.45332031 1.09121094 10.37304688 1.08789062 C11.30181641 1.07951172 12.23058594 1.07113281 13.1875 1.0625 C14.12787109 1.05798828 15.06824219 1.05347656 16.03710938 1.04882812 C18.35813712 1.03704626 20.67903644 1.02059558 23 1 C23 2.65 23 4.3 23 6 C16.4 5.67 9.8 5.34 3 5 C7.2533544 11.3800316 7.33952534 11.3965524 14 13 C14.99 14.485 14.99 14.485 16 16 C10.29410528 16.45647158 7.39901992 15.69917584 3 12 C0 7.8 0 7.8 0 5 C-1.32 5 -2.64 5 -4 5 C-4 4.01 -4 3.02 -4 2 C-2.68 2 -1.36 2 0 2 C0 1.34 0 0.68 0 0 Z " fill="#2E2309" transform="translate(110,232)"/>
<path d="M0 0 C1.9375 1.125 1.9375 1.125 3 3 C2.77669287 6.64734979 2.61627165 8.38372835 0 11 C-3.13704316 11.333728 -5.16554166 11.52849028 -7.875 9.8125 C-9.40659584 7.34492892 -9.42822025 5.85480169 -9 3 C-6.73529086 -0.64869805 -4.03159541 -0.50394943 0 0 Z " fill="#6D5317" transform="translate(269,78)"/>
<path d="M0 0 C0.33 0 0.66 0 1 0 C1.33 1.65 1.66 3.3 2 5 C2.33 5 2.66 5 3 5 C3 7.97 3 10.94 3 14 C1.68 14.33 0.36 14.66 -1 15 C-0.67 16.32 -0.34 17.64 0 19 C-1.65 18.67 -3.3 18.34 -5 18 C-5.33 16.68 -5.66 15.36 -6 14 C-6.55429688 14.16757813 -7.10859375 14.33515625 -7.6796875 14.5078125 C-8.40414062 14.71148437 -9.12859375 14.91515625 -9.875 15.125 C-10.95394531 15.43824219 -10.95394531 15.43824219 -12.0546875 15.7578125 C-12.69664063 15.83773437 -13.33859375 15.91765625 -14 16 C-16 14 -16 14 -16.1953125 10.9609375 C-16.17210938 9.77757813 -16.14890625 8.59421875 -16.125 7.375 C-16.10695313 6.18648438 -16.08890625 4.99796875 -16.0703125 3.7734375 C-16.04710938 2.85820313 -16.02390625 1.94296875 -16 1 C-15.67 1 -15.34 1 -15 1 C-15 4.96 -15 8.92 -15 13 C-13.2365625 12.505 -13.2365625 12.505 -11.4375 12 C-7.4988324 11.0030467 -4.04860871 10.83130797 0 11 C0 7.37 0 3.74 0 0 Z " fill="#30240A" transform="translate(124,66)"/>
<path d="M0 0 C3.0625 0.3125 3.0625 0.3125 4.9375 1.5 C6.46909584 3.96757108 6.49072025 5.45769831 6.0625 8.3125 C5 10.1875 5 10.1875 3.0625 11.3125 C-3.38194444 10.86805556 -3.38194444 10.86805556 -4.9375 9.3125 C-5.125 5.875 -5.125 5.875 -4.9375 2.3125 C-2.9375 0.3125 -2.9375 0.3125 0 0 Z " fill="#6E5318" transform="translate(285.9375,77.6875)"/>
<path d="M0 0 C4.33333333 0 8.66666667 0 13 0 C13 2.31 13 4.62 13 7 C12.2575 6.979375 11.515 6.95875 10.75 6.9375 C8.27650346 6.99371583 6.36793801 7.36854986 4 8 C3.01 8 2.02 8 1 8 C1 6.35 1 4.7 1 3 C0.34 3 -0.32 3 -1 3 C-0.67 2.01 -0.34 1.02 0 0 Z " fill="#000000" transform="translate(356,366)"/>
<path d="M0 0 C1.32 0 2.64 0 4 0 C4 6.93 4 13.86 4 21 C2.68 21 1.36 21 0 21 C0 14.07 0 7.14 0 0 Z " fill="#CC9B2C" transform="translate(82,212)"/>
<path d="M0 0 C6.6 0 13.2 0 20 0 C20 1.32 20 2.64 20 4 C13.4 4 6.8 4 0 4 C0 2.68 0 1.36 0 0 Z " fill="#D3A12E" transform="translate(281,269)"/>
<path d="M0 0 C6.6 0 13.2 0 20 0 C20 1.32 20 2.64 20 4 C13.4 4 6.8 4 0 4 C0 2.68 0 1.36 0 0 Z " fill="#D19F2D" transform="translate(258,269)"/>
<path d="M0 0 C6.6 0 13.2 0 20 0 C20 1.32 20 2.64 20 4 C13.4 4 6.8 4 0 4 C0 2.68 0 1.36 0 0 Z " fill="#D2A02D" transform="translate(236,269)"/>
<path d="M0 0 C6.6 0 13.2 0 20 0 C20 1.32 20 2.64 20 4 C13.4 4 6.8 4 0 4 C0 2.68 0 1.36 0 0 Z " fill="#D4A12E" transform="translate(213,269)"/>
<path d="M0 0 C6.6 0 13.2 0 20 0 C20 1.32 20 2.64 20 4 C13.4 4 6.8 4 0 4 C0 2.68 0 1.36 0 0 Z " fill="#D5A22E" transform="translate(190,269)"/>
<path d="M0 0 C6.6 0 13.2 0 20 0 C20 1.32 20 2.64 20 4 C13.4 4 6.8 4 0 4 C0 2.68 0 1.36 0 0 Z " fill="#D3A02E" transform="translate(167,269)"/>
<path d="M0 0 C6.6 0 13.2 0 20 0 C20 1.32 20 2.64 20 4 C13.4 4 6.8 4 0 4 C0 2.68 0 1.36 0 0 Z " fill="#D2A02D" transform="translate(122,269)"/>
<path d="M0 0 C6.6 0 13.2 0 20 0 C20 1.32 20 2.64 20 4 C13.4 4 6.8 4 0 4 C0 2.68 0 1.36 0 0 Z " fill="#D4A12E" transform="translate(99,269)"/>
<path d="M0 0 C1.32 0 2.64 0 4 0 C4 6.6 4 13.2 4 20 C2.68 20 1.36 20 0 20 C0 13.4 0 6.8 0 0 Z " fill="#D5A12E" transform="translate(82,235)"/>
<path d="M0 0 C1.32 0 2.64 0 4 0 C4 6.6 4 13.2 4 20 C2.68 20 1.36 20 0 20 C0 13.4 0 6.8 0 0 Z " fill="#D4A12E" transform="translate(82,190)"/>
<path d="M0 0 C1.32 0 2.64 0 4 0 C4 6.6 4 13.2 4 20 C2.68 20 1.36 20 0 20 C0 13.4 0 6.8 0 0 Z " fill="#D6A32E" transform="translate(82,167)"/>
<path d="M0 0 C1.32 0 2.64 0 4 0 C4 6.6 4 13.2 4 20 C2.68 20 1.36 20 0 20 C0 13.4 0 6.8 0 0 Z " fill="#D6A32E" transform="translate(82,144)"/>
<path d="M0 0 C1.32 0 2.64 0 4 0 C4 6.6 4 13.2 4 20 C2.68 20 1.36 20 0 20 C0 13.4 0 6.8 0 0 Z " fill="#D4A12E" transform="translate(82,121)"/>
<path d="M0 0 C1.32 0 2.64 0 4 0 C4 6.6 4 13.2 4 20 C2.68 20 1.36 20 0 20 C0 13.4 0 6.8 0 0 Z " fill="#D5A12E" transform="translate(82,76)"/>
<path d="M0 0 C1.32 0 2.64 0 4 0 C4 6.6 4 13.2 4 20 C2.68 20 1.36 20 0 20 C0 13.4 0 6.8 0 0 Z " fill="#D6A32E" transform="translate(82,53)"/>
<path d="M0 0 C1.32 0 2.64 0 4 0 C4.268125 1.093125 4.53625 2.18625 4.8125 3.3125 C6.02926603 7.37767186 6.02926603 7.37767186 9 10 C11.60611077 10.72197162 11.60611077 10.72197162 14 11 C14 12.32 14 13.64 14 15 C11.5 15.5 11.5 15.5 8 15 C4.34579304 12.42633811 0.58240429 9.39681765 -0.5078125 4.91015625 C-0.5 3 -0.5 3 0 0 Z " fill="#D2A02E" transform="translate(82,258)"/>
<path d="M0 0 C2.97 0.495 2.97 0.495 6 1 C6 1.99 6 2.98 6 4 C4.68 4 3.36 4 2 4 C1.6596875 5.36125 1.6596875 5.36125 1.3125 6.75 C-0.23649977 10.58561847 -1.43128816 11.9380776 -5 14 C-8.8125 14.25 -8.8125 14.25 -12 14 C-10.0283713 12.68558087 -8.02817985 11.41285866 -6 10.1875 C-2.53313095 7.95804945 -2.53313095 7.95804945 0 3 C-6.27 3 -12.54 3 -19 3 C-19 2.67 -19 2.34 -19 2 C-12.73 2 -6.46 2 0 2 C0 1.34 0 0.68 0 0 Z " fill="#0B0802" transform="translate(133,233)"/>
<path d="M0 0 C0.99 0 1.98 0 3 0 C3.6557639 3.93458342 3.75458115 5.89596906 1.46484375 9.24609375 C-3.53048451 14.64566823 -3.53048451 14.64566823 -7.08984375 15.50390625 C-9 15.5 -9 15.5 -12 15 C-12 13.68 -12 12.36 -12 11 C-10.9275 10.7525 -9.855 10.505 -8.75 10.25 C-4.93521371 8.97840457 -3.36433761 8.18276216 -1 5 C-0.20318682 2.35815459 -0.20318682 2.35815459 0 0 Z " fill="#D7A32F" transform="translate(316,258)"/>
<path d="M0 0 C6.69153164 -0.82176704 6.69153164 -0.82176704 10.08984375 1.3125 C13.56839696 4.49939537 14.90392082 6.13528739 15.4375 10.9375 C15.293125 11.948125 15.14875 12.95875 15 14 C14.01 14 13.02 14 12 14 C11.731875 13.071875 11.46375 12.14375 11.1875 11.1875 C9.86196453 7.44337311 9.86196453 7.44337311 7 5 C3.38976901 4.26958147 3.38976901 4.26958147 0 4 C0 2.68 0 1.36 0 0 Z " fill="#D2A02D" transform="translate(304,36)"/>
<path d="M0 0 C6.27 0 12.54 0 19 0 C19 1.32 19 2.64 19 4 C12.73 4 6.46 4 0 4 C0 2.68 0 1.36 0 0 Z " fill="#D7A32F" transform="translate(145,269)"/>
<path d="M0 0 C1.32 0 2.64 0 4 0 C4 6.27 4 12.54 4 19 C2.68 19 1.36 19 0 19 C0 12.73 0 6.46 0 0 Z " fill="#D9A52F" transform="translate(82,99)"/>
<path d="M0 0 C0.825 0.165 1.65 0.33 2.5 0.5 C2.5 1.49 2.5 2.48 2.5 3.5 C1.7575 3.7475 1.015 3.995 0.25 4.25 C-2.79534318 5.6342469 -4.41484062 6.89355077 -6.5 9.5 C-7.29681318 12.14184541 -7.29681318 12.14184541 -7.5 14.5 C-8.82 14.5 -10.14 14.5 -11.5 14.5 C-12 12 -12 12 -11.5 8.5 C-8.3743644 4.16143118 -5.40346138 0.77192305 0 0 Z " fill="#DBA62F" transform="translate(93.5,35.5)"/>
<path d="M0 0 C0.93423645 3.01031744 1.04449911 3.86650268 0 7 C1.2375 6.938125 2.475 6.87625 3.75 6.8125 C7.95060434 6.60246978 8.20242053 7.1518154 12 10 C3.585 10.495 3.585 10.495 -5 11 C-4.25271275 7.26356375 -3.59755383 4.38305517 -2 1 C-1.34 0.67 -0.68 0.34 0 0 Z " fill="#1F1306" transform="translate(128,190)"/>
<path d="M0 0 C0.99 0 1.98 0 3 0 C3 6.6 3 13.2 3 20 C2.01 20 1.02 20 0 20 C0 13.4 0 6.8 0 0 Z " fill="#E2AC31" transform="translate(316,167)"/>
<path d="M0 0 C0.99 0 1.98 0 3 0 C3 6.6 3 13.2 3 20 C2.01 20 1.02 20 0 20 C0 13.4 0 6.8 0 0 Z " fill="#E2AB31" transform="translate(316,144)"/>
<path d="M0 0 C0.99 0 1.98 0 3 0 C3 6.6 3 13.2 3 20 C2.01 20 1.02 20 0 20 C0 13.4 0 6.8 0 0 Z " fill="#E2AC31" transform="translate(316,53)"/>
<path d="M0 0 C6.6 0 13.2 0 20 0 C20 0.99 20 1.98 20 3 C13.4 3 6.8 3 0 3 C0 2.01 0 1.02 0 0 Z " fill="#E2AB31" transform="translate(213,36)"/>
<path d="M0 0 C6.6 0 13.2 0 20 0 C20 0.99 20 1.98 20 3 C13.4 3 6.8 3 0 3 C0 2.01 0 1.02 0 0 Z " fill="#E2AC31" transform="translate(190,36)"/>
<path d="M0 0 C6.6 0 13.2 0 20 0 C20 0.99 20 1.98 20 3 C13.4 3 6.8 3 0 3 C0 2.01 0 1.02 0 0 Z " fill="#E1AB31" transform="translate(99,36)"/>
<path d="M0 0 C0.99 0 1.98 0 3 0 C3 6.27 3 12.54 3 19 C2.01 19 1.02 19 0 19 C0 12.73 0 6.46 0 0 Z " fill="#E5AE32" transform="translate(316,236)"/>
<path d="M0 0 C0.99 0 1.98 0 3 0 C3 6.27 3 12.54 3 19 C2.01 19 1.02 19 0 19 C0 12.73 0 6.46 0 0 Z " fill="#E5AE32" transform="translate(316,213)"/>
<path d="M0 0 C0.99 0 1.98 0 3 0 C3 6.27 3 12.54 3 19 C2.01 19 1.02 19 0 19 C0 12.73 0 6.46 0 0 Z " fill="#E5AE32" transform="translate(316,190)"/>
<path d="M0 0 C0.99 0 1.98 0 3 0 C3 6.27 3 12.54 3 19 C2.01 19 1.02 19 0 19 C0 12.73 0 6.46 0 0 Z " fill="#E5AE32" transform="translate(316,122)"/>
<path d="M0 0 C0.99 0 1.98 0 3 0 C3 6.27 3 12.54 3 19 C2.01 19 1.02 19 0 19 C0 12.73 0 6.46 0 0 Z " fill="#E5AE32" transform="translate(316,99)"/>
<path d="M0 0 C0.99 0 1.98 0 3 0 C3 6.27 3 12.54 3 19 C2.01 19 1.02 19 0 19 C0 12.73 0 6.46 0 0 Z " fill="#E5AE32" transform="translate(316,76)"/>
<path d="M0 0 C0.66 0 1.32 0 2 0 C2 4.95 2 9.9 2 15 C-2.31445688 16.72578275 -3.96953009 17.24081253 -8.3125 17.125 C-9.63701172 17.09792969 -9.63701172 17.09792969 -10.98828125 17.0703125 C-11.65214844 17.04710938 -12.31601563 17.02390625 -13 17 C-13 16.34 -13 15.68 -13 15 C-12.30132812 14.93941406 -11.60265625 14.87882812 -10.8828125 14.81640625 C-9.51769531 14.69072266 -9.51769531 14.69072266 -8.125 14.5625 C-7.22007812 14.48128906 -6.31515625 14.40007812 -5.3828125 14.31640625 C-2.98889139 14.13010715 -2.98889139 14.13010715 -1 13 C-0.53045739 9.95418731 -0.53045739 9.95418731 -0.375 6.4375 C-0.30023438 5.23996094 -0.22546875 4.04242188 -0.1484375 2.80859375 C-0.09945312 1.88175781 -0.05046875 0.95492187 0 0 Z " fill="#080601" transform="translate(137,68)"/>
<path d="M0 0 C6.27 0 12.54 0 19 0 C19 0.99 19 1.98 19 3 C12.73 3 6.46 3 0 3 C0 2.01 0 1.02 0 0 Z " fill="#E5AE32" transform="translate(282,36)"/>
<path d="M0 0 C6.27 0 12.54 0 19 0 C19 0.99 19 1.98 19 3 C12.73 3 6.46 3 0 3 C0 2.01 0 1.02 0 0 Z " fill="#E5AE32" transform="translate(259,36)"/>
<path d="M0 0 C6.27 0 12.54 0 19 0 C19 0.99 19 1.98 19 3 C12.73 3 6.46 3 0 3 C0 2.01 0 1.02 0 0 Z " fill="#E5AE32" transform="translate(236,36)"/>
<path d="M0 0 C6.27 0 12.54 0 19 0 C19 0.99 19 1.98 19 3 C12.73 3 6.46 3 0 3 C0 2.01 0 1.02 0 0 Z " fill="#E5AE32" transform="translate(168,36)"/>
<path d="M0 0 C6.27 0 12.54 0 19 0 C19 0.99 19 1.98 19 3 C12.73 3 6.46 3 0 3 C0 2.01 0 1.02 0 0 Z " fill="#E5AE32" transform="translate(145,36)"/>
<path d="M0 0 C6.27 0 12.54 0 19 0 C19 0.99 19 1.98 19 3 C12.73 3 6.46 3 0 3 C0 2.01 0 1.02 0 0 Z " fill="#E5AE32" transform="translate(122,36)"/>
<path d="M0 0 C1.32 0.66 2.64 1.32 4 2 C4 4.97 4 7.94 4 11 C1.36 10.34 -1.28 9.68 -4 9 C-2.94124926 5.59687262 -1.99097846 2.98646769 0 0 Z " fill="#C9992C" transform="translate(268,67)"/>
<path d="M0 0 C0.33 0.66 0.66 1.32 1 2 C-0.41388379 3.75224914 -1.83122783 5.50170655 -3.25 7.25 C-4.03890625 8.22453125 -4.8278125 9.1990625 -5.640625 10.203125 C-7.66465805 12.60247544 -9.74122349 14.82411437 -12 17 C-12.33 16.01 -12.66 15.02 -13 14 C-11.5234375 11.66015625 -11.5234375 11.66015625 -9.375 9.0625 C-8.68148437 8.20785156 -7.98796875 7.35320312 -7.2734375 6.47265625 C-5.01443538 4.01570034 -2.65846877 2.01017551 0 0 Z " fill="#507776" transform="translate(257,136)"/>
<path d="M0 0 C2 0.6875 2 0.6875 4 2.6875 C4.125 5.8125 4.125 5.8125 4 8.6875 C3.34 8.6875 2.68 8.6875 2 8.6875 C1.34 6.7075 0.68 4.7275 0 2.6875 C-0.66 2.6875 -1.32 2.6875 -2 2.6875 C-2.25394531 3.25339844 -2.50789063 3.81929688 -2.76953125 4.40234375 C-3.11371094 5.13582031 -3.45789063 5.86929688 -3.8125 6.625 C-4.14894531 7.35589844 -4.48539062 8.08679688 -4.83203125 8.83984375 C-6 10.6875 -6 10.6875 -9 11.6875 C-7.77759242 7.64415186 -6.39561694 4.18110803 -4 0.6875 C-2 -0.3125 -2 -0.3125 0 0 Z " fill="#251C08" transform="translate(270,65.3125)"/>
<path d="M0 0 C2.8442585 1.15877198 4.27847757 2.29275847 6.4375 4.5625 C9.20267362 7.1927871 10.37650214 7.41240575 14 8 C14.99 9.485 14.99 9.485 16 11 C10.29410528 11.45647158 7.39901992 10.69917584 3 7 C0 2.8 0 2.8 0 0 Z " fill="#251C08" transform="translate(110,237)"/>
<path d="M0 0 C1.32 0 2.64 0 4 0 C5.32 2.64 6.64 5.28 8 8 C5.36 8.33 2.72 8.66 0 9 C0 6.03 0 3.06 0 0 Z " fill="#D5A22E" transform="translate(281,68)"/>
<path d="M0 0 C2.4375 0 2.4375 0 5 1 C6.8125 4.0625 6.8125 4.0625 8 7 C7.01 7 6.02 7 5 7 C4.67 5.68 4.34 4.36 4 3 C2.68 3 1.36 3 0 3 C0.33 5.64 0.66 8.28 1 11 C3.97 11.495 3.97 11.495 7 12 C7 12.33 7 12.66 7 13 C1.25 14.125 1.25 14.125 -1 13 C-1.484375 10.56640625 -1.484375 10.56640625 -1.75 7.5625 C-1.84796875 6.57378906 -1.9459375 5.58507812 -2.046875 4.56640625 C-2 2 -2 2 0 0 Z " fill="#2F230A" transform="translate(281,65)"/>
<path d="M0 0 C-0.33 0.99 -0.66 1.98 -1 3 C-5.95 3 -10.9 3 -16 3 C-15.67 2.34 -15.34 1.68 -15 1 C-12.890625 0.5859375 -12.890625 0.5859375 -10.25 0.375 C-9.38890625 0.30023438 -8.5278125 0.22546875 -7.640625 0.1484375 C-5.08696789 0.00488873 -2.55704224 -0.02759398 0 0 Z " fill="#040100" transform="translate(263,188)"/>
<path d="M0 0 C0.99 0.33 1.98 0.66 3 1 C-0.75 5.875 -0.75 5.875 -3 7 C-5.3329866 7.04022391 -7.66706666 7.04320247 -10 7 C-7.96153279 5.64102186 -5.91973686 4.28702633 -3.875 2.9375 C-1.21312042 1.27685736 -1.21312042 1.27685736 0 0 Z " fill="#181205" transform="translate(131,240)"/>
<path d="M0 0 C0.33 0 0.66 0 1 0 C1 3.96 1 7.92 1 12 C3.64 11.67 6.28 11.34 9 11 C8.67 11.99 8.34 12.98 8 14 C5.125 14.625 5.125 14.625 2 15 C0 13 0 13 -0.1953125 9.9609375 C-0.17210938 8.77757813 -0.14890625 7.59421875 -0.125 6.375 C-0.10695313 5.18648438 -0.08890625 3.99796875 -0.0703125 2.7734375 C-0.04710938 1.85820313 -0.02390625 0.94296875 0 0 Z " fill="#47360F" transform="translate(108,67)"/>
<path d="M0 0 C0.99 0.33 1.98 0.66 3 1 C4.6875 4.5625 4.6875 4.5625 6 8 C5.01 8.495 5.01 8.495 4 9 C4 8.34 4 7.68 4 7 C1.69 6.34 -0.62 5.68 -3 5 C-1.68 4.34 -0.36 3.68 1 3 C0.67 2.01 0.34 1.02 0 0 Z " fill="#0E0B03" transform="translate(287,72)"/>
<path d="M0 0 C0.33 0.66 0.66 1.32 1 2 C0.34 2 -0.32 2 -1 2 C-1 2.66 -1 3.32 -1 4 C-4.3 4.33 -7.6 4.66 -11 5 C-9.68 4.67 -8.36 4.34 -7 4 C-7 3.34 -7 2.68 -7 2 C-4.69 1.34 -2.38 0.68 0 0 Z " fill="#271D08" transform="translate(138,66)"/>
<path d="M0 0 C0.5775 0.2475 1.155 0.495 1.75 0.75 C0.76 1.41 -0.23 2.07 -1.25 2.75 C-2.24 3.7709375 -2.24 3.7709375 -3.25 4.8125 C-5.25 6.75 -5.25 6.75 -8.25 7.75 C-6.64613593 4.0076505 -4.56199942 -0.50688882 0 0 Z " fill="#1A1405" transform="translate(94.25,39.25)"/>
<path d="M0 0 C0 0.99 0 1.98 0 3 C-0.66 3 -1.32 3 -2 3 C-2.28875 3.804375 -2.5775 4.60875 -2.875 5.4375 C-4 8 -4 8 -6 9 C-5.38983051 3.50847458 -5.38983051 3.50847458 -3.5625 1.125 C-2 0 -2 0 0 0 Z " fill="#100C03" transform="translate(117,225)"/>
<path d="M0 0 C3.3 0 6.6 0 10 0 C9.67 0.66 9.34 1.32 9 2 C6.6859378 2.73075648 4.35171131 3.40138258 2 4 C2 3.34 2 2.68 2 2 C1.34 2 0.68 2 0 2 C0 1.34 0 0.68 0 0 Z " fill="#231B07" transform="translate(108,63)"/>
<path d="M0 0 C0.33 0 0.66 0 1 0 C1.33 2.31 1.66 4.62 2 7 C4.97 7.495 4.97 7.495 8 8 C8 8.33 8 8.66 8 9 C2.25 10.125 2.25 10.125 0 9 C0 6.03 0 3.06 0 0 Z " fill="#594413" transform="translate(280,69)"/>
<path d="M0 0 C0.99 0 1.98 0 3 0 C2.67 1.65 2.34 3.3 2 5 C1.01 4.67 0.02 4.34 -1 4 C-0.67 2.68 -0.34 1.36 0 0 Z " fill="#D19F2D" transform="translate(285,81)"/>
<path d="M0 0 C1.32 0.33 2.64 0.66 4 1 C3.67 2.32 3.34 3.64 3 5 C2.01 4.67 1.02 4.34 0 4 C0 2.68 0 1.36 0 0 Z " fill="#D19F2D" transform="translate(264,81)"/>
</svg>
